<svg width="128" height="128" viewBox="0 0 128 128" fill="none" xmlns="http://www.w3.org/2000/svg">
  <defs>
    <linearGradient id="ghostGradient" x1="0" y1="0" x2="0" y2="1">
      <stop offset="0%" stop-color="#8a60f0"/>
      <stop offset="100%" stop-color="#5248e3"/>
    </linearGradient>
  </defs>
  <path d="M64 8C37.5 8 16 29.5 16 56v48c0 2.5 2 4.5 4.5 4.5 1.6 0 3.2-.9 4-2.3l4-7.2 5.4 7.2c1.8 2.4 5.4 2.4 7.2 0l5.4-7.2 5.4 7.2c1.8 2.4 5.4 2.4 7.2 0l5.4-7.2 5.4 7.2c1.8 2.4 5.4 2.4 7.2 0l5.4-7.2 5.4 7.2c1.8 2.4 5.4 2.4 7.2 0l5.4-7.2 4 7.2c0.8 1.4 2.4 2.3 4 2.3 2.5 0 4.5-2 4.5-4.5V56c0-26.5-21.5-48-48-48z" fill="url(#ghostGradient)"/>
  <circle cx="48" cy="56" r="6" fill="#fff"/>
  <circle cx="80" cy="56" r="6" fill="#fff"/>
  <path d="M48 80c4 4 12 4 16 0" stroke="#fff" stroke-width="3" stroke-linecap="round"/>
</svg>
